# xmcd CD database file
#
# Track frame offsets:
#	150
#	30759
#	112240
#	171907
#	218543
#	237613
#
# Disc length: 4337 seconds
#
# Revision: 0
# Processed by: cddbd v1.5.1PL0 Copyright (c) Steve Scherf et al.
# Submitted via: CDex 1.51
#
DISCID=4b10ef06
DTITLE=KVHW - 99-12-10 Disc3
DYEAR=1999
DGENRE=Jazz
TTITLE0=Teeny Weeny Bit
TTITLE1=Point Of No Return
TTITLE2=Bad Hair
TTITLE3=Spanish Castle Magic
TTITLE4=crowd-
TTITLE5=Hillbiliies On PCP
EXTD=YEAR: 1999
EXTT0=
EXTT1=
EXTT2=
EXTT3=
EXTT4=
EXTT5=
PLAYORDER=
